<svg width="628" height="196" viewBox="0 0 628 196" fill="none" xmlns="http://www.w3.org/2000/svg">
<path d="M132.197 0L106.258 150.556H186.587L178.686 195.982H46.9742L80.8141 0H132.197Z" fill="#C31E21"/>
<path d="M278.904 0L245.064 195.982H193.681L227.521 0H278.904Z" fill="#C31E21"/>
<path d="M356.299 150.813L425.849 0H478.992L388.893 195.982H308.821L288.253 0H340.388L355.804 150.813H356.299Z" fill="#C31E21"/>
<path d="M532.208 42.8773L526.067 78.6053H608.284L602.143 114.975H519.926L513.29 153.123H602.638L595.122 196H454.519L488.341 0H627.202L619.814 42.8773H532.208Z" fill="#C31E21"/>
<path d="M54.4811 84.9113H38.5694C38.8627 83.1698 39.0277 81.96 39.0277 81.245C39.0277 78.257 36.168 76.7722 30.4669 76.7722C28.982 76.7722 27.7172 76.8455 26.6539 77.0105C25.5907 77.1754 24.6742 77.4504 23.8859 77.872C23.0976 78.2937 22.4377 78.752 21.9428 79.2652C21.4478 79.7785 20.9895 80.5118 20.5862 81.465C20.1829 82.4182 19.8713 83.3715 19.6513 84.343C19.4314 85.3146 19.1747 86.5978 18.8997 88.1743C17.3232 97.395 16.48 102.528 16.4067 103.591V104.214C16.4067 106.341 17.0116 107.862 18.2215 108.797C19.4314 109.732 21.6128 110.172 24.7475 110.172C25.8474 110.172 26.7273 110.172 27.3505 110.135C27.9738 110.117 28.7071 110.044 29.532 109.915C30.3569 109.805 31.0168 109.622 31.4751 109.365C31.9334 109.109 32.4467 108.779 32.9966 108.339C33.5466 107.899 33.9865 107.349 34.2982 106.707C34.6098 106.066 34.9031 105.259 35.1781 104.288C35.4531 103.334 35.673 102.216 35.8563 100.933H51.7864C51.3281 104.068 50.7598 106.799 50.0816 109.127C49.4033 111.455 48.5234 113.472 47.4235 115.195C46.3236 116.918 45.0954 118.348 43.7205 119.466C42.3457 120.584 40.6592 121.483 38.6611 122.179C36.6629 122.876 34.4998 123.352 32.1901 123.627C29.8803 123.902 27.1672 124.031 24.0509 124.031C22.2911 124.031 20.8062 124.031 19.578 123.994C18.3498 123.976 16.9933 123.902 15.4901 123.774C13.9869 123.664 12.7037 123.481 11.6771 123.261C10.6506 123.041 9.55069 122.747 8.39581 122.363C7.24093 121.978 6.26936 121.538 5.49944 121.006C4.71119 120.474 3.9596 119.833 3.20801 119.063C2.47475 118.293 1.88814 117.413 1.44819 116.423C1.00823 115.433 0.678264 114.26 0.403292 112.958C0.12832 111.657 0 110.19 0 108.577C0 106.432 1.09989 98.7699 3.318 85.6079C3.79461 82.8032 4.43621 80.3101 5.22447 78.1103C6.01272 75.9106 6.92929 74.0224 7.95586 72.4459C8.98242 70.8694 10.2106 69.4946 11.6588 68.358C13.0887 67.2215 14.5735 66.3049 16.1134 65.59C17.6532 64.8934 19.4314 64.3434 21.4845 63.9401C23.5376 63.5368 25.5724 63.2619 27.5705 63.1152C29.587 62.9686 31.8967 62.8952 34.5181 62.8952C41.5574 62.8952 46.8002 63.9585 50.2282 66.0849C53.6562 68.2114 55.3794 71.896 55.3794 77.1388C55.3794 78.4586 55.086 81.0434 54.4811 84.893V84.9113Z" fill="white"/>
<path d="M79.3569 124.049C76.4422 124.049 73.8575 123.921 71.6027 123.646C69.3479 123.371 67.2032 122.876 65.1684 122.161C63.1336 121.446 61.4471 120.493 60.1272 119.301C58.8073 118.11 57.7625 116.551 56.9925 114.645C56.2226 112.738 55.8376 110.484 55.8376 107.899C55.8376 105.534 56.9742 97.8717 59.229 84.9296C59.8522 81.3183 60.8421 78.202 62.1987 75.5623C63.5369 72.9225 65.095 70.8144 66.8549 69.2196C68.6147 67.6247 70.7411 66.3415 73.2525 65.3883C75.7639 64.4351 78.2937 63.7751 80.8968 63.4452C83.4815 63.1152 86.4695 62.9319 89.8425 62.9319C92.8122 62.9319 95.4153 63.0602 97.6517 63.2985C99.8882 63.5368 102.033 64.0134 104.104 64.7284C106.158 65.425 107.844 66.3599 109.164 67.5331C110.484 68.7063 111.51 70.2278 112.28 72.1343C113.05 74.0224 113.435 76.2772 113.435 78.8619C113.435 80.8051 112.299 88.4676 110.044 101.831C109.421 105.443 108.431 108.559 107.092 111.217C105.754 113.857 104.214 116.001 102.436 117.615C100.658 119.246 98.5133 120.548 96.0019 121.519C93.4905 122.509 90.9241 123.169 88.3027 123.517C85.6813 123.866 82.7116 124.049 79.3569 124.049ZM81.74 110.19C83.1699 110.19 84.3797 110.154 85.3696 110.062C86.3595 109.97 87.3128 109.787 88.2293 109.53C89.1642 109.274 89.9342 108.907 90.5391 108.467C91.144 108.009 91.694 107.404 92.2256 106.652C92.7389 105.901 93.1788 104.984 93.5271 103.921C93.8754 102.858 94.1871 101.575 94.4254 100.071C96.1852 89.7325 97.0651 83.9214 97.0651 82.6199C97.0651 81.575 96.9368 80.7134 96.6802 80.0168C96.4235 79.3202 96.0752 78.7519 95.6169 78.3303C95.1586 77.9087 94.517 77.5787 93.6738 77.3587C92.8305 77.1388 91.9506 76.9921 91.0341 76.9188C90.1175 76.8455 88.9259 76.8088 87.4778 76.8088C86.0296 76.8088 84.783 76.8455 83.8298 76.9005C82.8949 76.9738 81.9416 77.1204 81.0067 77.3587C80.0718 77.5971 79.3019 77.9453 78.7153 78.367C78.1287 78.7886 77.5788 79.3752 77.0471 80.1085C76.5155 80.8417 76.0939 81.7216 75.7456 82.7849C75.3973 83.8481 75.104 85.113 74.8657 86.6161C73.1059 96.9551 72.226 102.821 72.226 104.251C72.226 106.726 72.9226 108.321 74.3341 109.072C75.7456 109.824 78.202 110.209 81.7217 110.209L81.74 110.19Z" fill="white"/>
<path d="M129.072 63.4635H175.964L165.771 123.279H150.3L158.109 77.3404H141.354L137.083 102.455C135.928 109.182 133.581 114.443 130.043 118.22C126.505 122.014 121.868 123.902 116.148 123.902C113.288 123.902 110.704 123.664 108.412 123.206L110.594 110.282C111.694 110.667 113.252 110.869 115.232 110.869C117.34 110.869 118.935 110.264 119.979 109.036C121.043 107.807 121.813 105.718 122.326 102.729L129.035 63.4818L129.072 63.4635Z" fill="white"/>
<path d="M198.695 124.049C195.78 124.049 193.195 123.921 190.941 123.646C188.686 123.371 186.541 122.876 184.506 122.161C182.471 121.446 180.785 120.493 179.465 119.301C178.145 118.11 177.1 116.551 176.33 114.645C175.56 112.738 175.175 110.484 175.175 107.899C175.175 105.534 176.312 97.8717 178.567 84.9296C179.19 81.3183 180.18 78.202 181.536 75.5623C182.875 72.9225 184.433 70.8144 186.193 69.2196C187.953 67.6247 190.079 66.3415 192.59 65.3883C195.102 64.4351 197.632 63.7751 200.235 63.4452C202.819 63.1152 205.807 62.9319 209.18 62.9319C212.15 62.9319 214.753 63.0602 216.99 63.2985C219.226 63.5368 221.371 64.0134 223.442 64.7284C225.495 65.425 227.182 66.3599 228.502 67.5331C229.822 68.7063 230.848 70.2278 231.618 72.1343C232.388 74.0224 232.773 76.2772 232.773 78.8619C232.773 80.8051 231.636 88.4676 229.382 101.831C228.758 105.443 227.768 108.559 226.449 111.217C225.11 113.857 223.571 116.001 221.792 117.615C220.014 119.246 217.869 120.548 215.358 121.519C212.847 122.509 210.28 123.169 207.659 123.517C205.037 123.866 202.068 124.049 198.713 124.049H198.695ZM201.078 110.19C202.508 110.19 203.718 110.154 204.707 110.062C205.697 109.97 206.651 109.787 207.567 109.53C208.502 109.274 209.272 108.907 209.877 108.467C210.482 108.009 211.032 107.404 211.563 106.652C212.077 105.901 212.517 104.984 212.865 103.921C213.213 102.858 213.525 101.575 213.763 100.071C215.523 89.7325 216.403 83.9214 216.403 82.6199C216.403 81.575 216.275 80.7134 216.018 80.0168C215.761 79.3202 215.413 78.7519 214.955 78.3303C214.496 77.9087 213.855 77.5787 213.012 77.3587C212.168 77.1388 211.288 76.9921 210.372 76.9188C209.455 76.8455 208.264 76.8088 206.816 76.8088C205.367 76.8088 204.121 76.8455 203.168 76.9005C202.233 76.9738 201.279 77.1204 200.345 77.3587C199.41 77.5971 198.64 77.9453 198.053 78.367C197.467 78.7886 196.917 79.3752 196.385 80.1085C195.853 80.8417 195.432 81.7216 195.083 82.7849C194.735 83.8481 194.442 85.113 194.204 86.6161C192.444 96.9551 191.564 102.821 191.564 104.251C191.564 106.726 192.26 108.321 193.672 109.072C195.083 109.824 197.54 110.209 201.06 110.209L201.078 110.19Z" fill="white"/>
<path d="M231.948 123.261L242.14 63.4452H272.589C274.734 63.4452 276.567 63.5185 278.107 63.6835C279.646 63.8485 281.131 64.1418 282.543 64.6C283.954 65.0583 285.091 65.6633 285.934 66.4515C286.777 67.2398 287.474 68.248 287.969 69.5312C288.464 70.7961 288.721 72.3176 288.721 74.0407C288.721 75.4339 288.574 77.0104 288.262 78.7519C287.932 80.8051 287.529 82.5465 287.052 83.9764C286.576 85.4063 285.916 86.7444 285.054 87.991C284.193 89.2375 283.093 90.2458 281.755 90.9973C280.416 91.7489 278.767 92.2805 276.823 92.5922L276.677 93.2155C279.72 93.3988 281.865 94.187 283.093 95.5802C284.321 96.9734 284.944 98.9532 284.944 101.52C284.944 103.096 284.798 104.801 284.486 106.616C283.991 109.53 283.276 111.987 282.378 114.003C281.48 116.02 280.435 117.615 279.28 118.825C278.125 120.034 276.658 120.969 274.88 121.629C273.102 122.289 271.306 122.729 269.473 122.949C267.639 123.169 265.366 123.279 262.69 123.279H231.948V123.261ZM251.636 98.4583L249.638 110.172H261.297C263.881 110.172 265.788 109.75 266.979 108.907C268.171 108.064 268.978 106.469 269.418 104.104C269.564 103.334 269.637 102.619 269.637 101.96C269.637 100.511 269.198 99.5581 268.318 99.1182C267.438 98.6782 265.88 98.4583 263.643 98.4583H251.654H251.636ZM255.339 76.5338L253.487 87.3494H264.615C267.328 87.3494 269.198 86.9828 270.206 86.2678C271.214 85.5346 271.929 83.9947 272.351 81.63C272.497 80.86 272.571 80.1635 272.571 79.5585C272.571 78.477 272.259 77.6887 271.636 77.2304C271.012 76.7538 269.912 76.5338 268.354 76.5338H255.339Z" fill="white"/>
<path d="M313.615 63.4635L309.655 86.5978H324.027C329.16 86.5978 332.973 87.5877 335.502 89.5675C338.014 91.5473 339.279 94.792 339.279 99.2832C339.279 100.988 339.095 102.876 338.71 104.929C337.629 111.437 335.374 116.13 331.946 118.99C328.518 121.849 323.789 123.279 317.776 123.279H287.969L298.161 63.4635H313.633H313.615ZM307.51 99.0082L305.512 110.85H316.273C318.527 110.85 320.177 110.447 321.204 109.659C322.23 108.871 322.927 107.349 323.294 105.076C323.44 104.159 323.514 103.408 323.514 102.784C323.514 101.336 323.11 100.346 322.304 99.8148C321.497 99.2832 320.159 99.0082 318.271 99.0082H307.51Z" fill="white"/>
<path d="M364.118 76.5338L362.266 87.4411H386.977L385.052 98.5316H360.305L358.307 110.172H385.199L382.944 123.261H340.617L350.919 63.4452H392.678L390.46 76.5338H364.136H364.118ZM370.827 48.5417L369.434 56.7542H361.02L362.413 48.5417H370.827ZM386.904 48.5417L385.511 56.7542H377.097L378.49 48.5417H386.904Z" fill="white"/>
<path d="M392.202 123.261L402.394 63.4452H432.843C434.987 63.4452 436.82 63.5185 438.36 63.6835C439.9 63.8485 441.385 64.1418 442.797 64.6C444.208 65.0583 445.345 65.6633 446.188 66.4515C447.049 67.2214 447.728 68.248 448.223 69.5312C448.718 70.7961 448.974 72.3176 448.974 74.0407C448.974 75.4339 448.828 77.0104 448.516 78.7519C448.186 80.8051 447.783 82.5465 447.306 83.9764C446.829 85.4063 446.169 86.7444 445.308 87.991C444.446 89.2375 443.346 90.2458 442.008 90.9973C440.67 91.7489 439.02 92.2805 437.077 92.5922L436.93 93.2155C439.973 93.3988 442.118 94.187 443.346 95.5802C444.575 96.9734 445.198 98.9532 445.198 101.52C445.198 103.096 445.051 104.801 444.74 106.616C444.245 109.53 443.53 111.987 442.632 114.003C441.733 116.02 440.688 117.615 439.534 118.825C438.379 120.034 436.912 120.969 435.134 121.629C433.356 122.289 431.559 122.729 429.726 122.949C427.893 123.169 425.62 123.279 422.944 123.279H392.202V123.261ZM411.89 98.4583L409.892 110.172H421.55C424.135 110.172 426.042 109.75 427.233 108.907C428.425 108.064 429.231 106.469 429.671 104.104C429.818 103.334 429.891 102.619 429.891 101.96C429.891 100.511 429.451 99.5581 428.571 99.1182C427.691 98.6782 426.133 98.4583 423.897 98.4583H411.908H411.89ZM415.593 76.5338L413.741 87.3494H424.868C427.581 87.3494 429.451 86.9828 430.459 86.2678C431.468 85.5346 432.183 83.9947 432.604 81.63C432.751 80.86 432.824 80.1635 432.824 79.5585C432.824 78.477 432.513 77.6887 431.889 77.2304C431.266 76.7538 430.166 76.5338 428.608 76.5338H415.593Z" fill="white"/>
</svg>
